<svg width="59" height="28" viewBox="0 0 59 28" fill="none" xmlns="http://www.w3.org/2000/svg">
<g filter="url(#filter0_d_6_252)">
<path d="M5.51123 15.7549L6.25508 14.8955C7.1319 15.6976 7.99793 16.2812 8.85318 16.6465C9.70843 17.0046 10.6931 17.1836 11.807 17.1836C12.957 17.1836 13.8949 16.8936 14.6207 16.3135C15.3466 15.7334 15.7096 14.9886 15.7096 14.0791C15.7096 13.5062 15.591 13.0299 15.3538 12.6504C15.1238 12.2708 14.6854 11.9271 14.0386 11.6191C13.399 11.3112 12.5006 11.0391 11.3435 10.8027C9.48204 10.4232 8.14526 9.89681 7.33313 9.22363C6.52819 8.54329 6.12572 7.6123 6.12572 6.43066C6.12572 5.27767 6.59647 4.31445 7.53796 3.54102C8.47946 2.76758 9.66531 2.38086 11.0955 2.38086C12.1879 2.38086 13.1402 2.53125 13.9524 2.83203C14.7645 3.12565 15.5766 3.59831 16.3887 4.25L15.6664 5.15234C14.9549 4.53646 14.2255 4.09245 13.478 3.82031C12.7378 3.54818 11.9292 3.41211 11.0524 3.41211C9.93123 3.41211 9.02208 3.69499 8.32494 4.26074C7.6278 4.81934 7.27923 5.52116 7.27923 6.36621C7.27923 6.94629 7.39422 7.42969 7.62421 7.81641C7.86138 8.19596 8.31056 8.55046 8.97177 8.87988C9.64016 9.20215 10.5745 9.48503 11.7747 9.72852C13.5643 10.0938 14.8579 10.613 15.6557 11.2861C16.4606 11.9593 16.8631 12.8688 16.8631 14.0146C16.8631 15.2464 16.3816 16.2562 15.4185 17.0439C14.4554 17.8245 13.2265 18.2148 11.7316 18.2148C10.517 18.2148 9.41017 18.0143 8.41118 17.6133C7.41938 17.2122 6.45273 16.5928 5.51123 15.7549Z"/>
<path d="M22.3055 18V1.94043H23.3836V18H22.3055Z"/>
<path d="M29.4405 3.85254V2.38086H30.7772V3.85254H29.4405ZM29.5698 18V6.78516H30.6479V18H29.5698Z"/>
<path d="M36.6724 18V6.78516H37.7613V8.7832C37.9697 8.45378 38.1781 8.16732 38.3865 7.92383C38.595 7.68034 38.8465 7.44759 39.1412 7.22559C39.443 6.99642 39.7916 6.82096 40.1869 6.69922C40.5894 6.57747 41.0314 6.5166 41.5129 6.5166C42.4328 6.5166 43.209 6.74219 43.8415 7.19336C44.4811 7.63737 44.9698 8.21745 45.3076 8.93359C46.2491 7.32227 47.6039 6.5166 49.3719 6.5166C50.7014 6.5166 51.7543 6.94271 52.5305 7.79492C53.3067 8.64714 53.6948 9.78223 53.6948 11.2002V18H52.6168V11.3291C52.6168 10.126 52.3221 9.18783 51.7328 8.51465C51.1434 7.84147 50.3277 7.50488 49.2856 7.50488C48.2938 7.50488 47.4529 7.86296 46.763 8.5791C46.073 9.29525 45.7281 10.2585 45.7281 11.4688V18H44.65V11.2646C44.65 10.1045 44.3517 9.18783 43.7552 8.51465C43.1659 7.84147 42.3681 7.50488 41.362 7.50488C40.3558 7.50488 39.5041 7.89518 38.807 8.67578C38.1098 9.44922 37.7613 10.4017 37.7613 11.5332V18H36.6724Z"/>
</g>
</svg>
